<svg t="1641349768599" class="icon" viewBox="0 0 1267 1024" version="1.1" xmlns="http://www.w3.org/2000/svg" p-id="12072" width="64" height="64"><path d="M67.242667 136.289524h1129.910857c35.742476 0 64.658286-28.184381 64.658286-62.951619S1232.944762 10.386286 1197.104762 10.386286H67.242667C31.548952 10.386286 2.584381 38.521905 2.584381 73.289143c0 34.816 28.964571 63.000381 64.658286 63.000381zM1197.153524 451.047619H67.242667c-35.791238 0-64.658286 28.184381-64.658286 62.902857 0 34.816 28.867048 63.000381 64.658286 63.000381h1129.910857c35.742476 0 64.658286-28.184381 64.658286-62.951619S1232.700952 451.047619 1197.104762 451.047619z m0 445.878857H67.242667c-35.693714 0-64.658286 28.233143-64.658286 63.000381 0 34.718476 28.964571 62.902857 64.658286 62.902857h1129.910857c35.742476 0 64.658286-28.184381 64.658286-62.902857 0-34.767238-28.91581-63.000381-64.658286-63.000381z" p-id="12073" fill="rgba(255, 255, 255, 0.65)"></path></svg>